# xmcd
#
# Track frame offsets:
#	150
#	15670
#	32671
#	48540
#	64994
#	86030
#	100081
#	114137
#	134052
#	152011
#
# Disc length: 2264 seconds
# Revision: 0
# Processed by: cddbd v1.5.2PL0 Copyright (c) Steve Scherf et al.
# Submitted via: dBpowerAMP V12.0
#
DISCID=7f08d60a
DTITLE=Jerry Jeff Walker - Ridin' High [MCA] (L)
DYEAR=1975
DGENRE=Country
TTITLE0=Public Domain
TTITLE1=Pick Up The Tempo
TTITLE2=Like A Coat From The Cold
TTITLE3=I Love You
TTITLE4=Night Rider's Lament
TTITLE5=Goodbye Easy Street 
TTITLE6=Pot Can't Call The Kettle Black
TTITLE7=Mississippi You're On My Mind
TTITLE8=Jaded Lover
TTITLE9=Pissin In The Wind
EXTD=
EXTT0=
EXTT1=
EXTT2=
EXTT3=
EXTT4=
EXTT5=
EXTT6=
EXTT7=
EXTT8=
EXTT9=
PLAYORDER=
